<?xml version="1.0" encoding="utf-8"?>
<!-- Generator: Adobe Illustrator 16.0.0, SVG Export Plug-In . SVG Version: 6.00 Build 0)  -->
<svg version="1.2" baseProfile="tiny" id="Layer_1" xmlns:sketch="http://www.bohemiancoding.com/sketch/ns"
	 xmlns="http://www.w3.org/2000/svg" xmlns:xlink="http://www.w3.org/1999/xlink" x="0px" y="0px" width="3000px" height="3000px"
	 viewBox="0 0 3000 3000" xml:space="preserve">
<title>react-logo</title>
<desc>Created with Sketch.</desc>
<g id="Page-1" sketch:type="MSPage">
	<g id="logo-_x28_1_x29_" transform="translate(12.000000, 17.000000)" sketch:type="MSLayerGroup">
		<circle id="Oval" sketch:type="MSShapeGroup" fill="#00D8FF" cx="510.641" cy="1482.125" r="93.132">
		</circle>
		<path id="Shape" sketch:type="MSShapeGroup" fill="none" stroke="#00D8FF" stroke-width="24" d="M510.641,1292.769
			c125.042,0,241.203,17.942,328.787,48.095c105.527,36.328,170.41,91.397,170.41,141.262c0,51.963-68.764,110.463-182.085,148.01
			c-85.676,28.387-198.414,43.203-317.112,43.203c-121.697,0-236.937-13.908-323.559-43.517
			c-109.615-37.467-175.639-96.727-175.639-147.696c0-49.459,61.949-104.102,165.993-140.377
			C265.348,1311.101,384.377,1292.769,510.641,1292.769L510.641,1292.769z"/>
		<path id="Shape_1_" sketch:type="MSShapeGroup" fill="none" stroke="#00D8FF" stroke-width="24" d="M345.802,1387.992
			c62.468-108.319,136.042-199.982,205.916-260.792c84.189-73.266,164.308-101.961,207.503-77.052
			c45.015,25.959,61.341,114.754,37.253,231.676c-18.211,88.4-61.696,193.463-120.995,296.289
			c-60.796,105.424-130.414,198.303-199.338,258.55c-87.218,76.24-171.535,103.829-215.69,78.366
			c-42.844-24.71-59.231-105.671-38.677-213.923C239.141,1609.64,282.724,1497.372,345.802,1387.992L345.802,1387.992z"/>
		<path id="Shape_2_" sketch:type="MSShapeGroup" fill="none" stroke="#00D8FF" stroke-width="24" d="M345.96,1578.389
			c-62.647-108.216-105.317-217.736-123.104-308.642c-21.431-109.528-6.279-193.272,36.876-218.254
			c44.97-26.035,130.053,4.166,219.32,83.428c67.492,59.926,136.797,150.069,196.268,252.797
			c60.973,105.321,106.673,212.021,124.448,301.823c22.494,113.638,4.286,200.465-39.826,226.002
			c-42.804,24.78-121.131-1.455-204.652-73.327C484.721,1781.49,409.222,1687.662,345.96,1578.389L345.96,1578.389z"/>
	</g>
	<path id="React" sketch:type="MSShapeGroup" fill="#00D8FF" d="M1662.55,1676.177l-126.98-191.881
		c64.195-5.644,122.042-52.203,122.042-136.856c0-86.771-61.373-141.795-147.438-141.795h-189.06v470.532h58.552v-186.943h93.824
		l119.926,186.943H1662.55z M1503.119,1437.736h-123.453v-179.889h123.453c55.73,0,93.824,36.684,93.824,89.592
		S1558.85,1437.736,1503.119,1437.736L1503.119,1437.736z M1880.532,1684.643c55.73,0,101.584-18.342,135.445-52.203l-25.396-34.567
		c-26.808,27.513-66.313,43.032-105.111,43.032c-73.367,0-118.516-53.613-122.748-117.81h275.829v-13.403
		c0-102.289-60.668-182.71-163.663-182.71c-97.352,0-167.896,79.715-167.896,178.478
		C1706.992,1611.981,1779.653,1684.643,1880.532,1684.643L1880.532,1684.643z M1986.349,1484.296h-223.626
		c2.822-52.203,38.8-113.577,111.461-113.577C1951.782,1370.719,1985.644,1433.504,1986.349,1484.296L1986.349,1484.296z
		 M2389.863,1676.177v-234.208c0-82.537-59.962-114.987-131.918-114.987c-55.73,0-99.468,18.342-136.15,56.436l24.69,36.683
		c30.334-32.45,63.489-47.265,104.405-47.265c49.382,0,86.064,26.102,86.064,71.956v61.373
		c-27.512-31.745-66.312-46.559-112.871-46.559c-57.847,0-119.221,35.978-119.221,112.165c0,74.072,61.374,112.872,119.221,112.872
		c45.854,0,84.653-16.226,112.871-47.266v38.8H2389.863z M2243.131,1646.548c-49.381,0-83.947-31.039-83.947-74.071
		c0-43.738,34.566-74.777,83.947-74.777c37.389,0,73.367,14.108,93.824,42.326v64.196
		C2316.498,1632.439,2280.52,1646.548,2243.131,1646.548L2243.131,1646.548z M2645.94,1684.643
		c62.079,0,98.763-25.396,124.864-59.258l-35.272-32.45c-22.574,30.334-51.497,44.442-86.77,44.442
		c-72.661,0-117.81-56.436-117.81-131.918s45.148-131.213,117.81-131.213c35.272,0,64.195,13.403,86.77,44.443l35.272-32.451
		c-26.102-33.861-62.785-59.257-124.864-59.257c-101.584,0-170.013,77.599-170.013,178.478
		C2475.928,1607.043,2544.356,1684.643,2645.94,1684.643L2645.94,1684.643z M2930.941,1684.643c31.039,0,50.086-9.171,63.489-21.869
		l-15.52-39.505c-7.055,7.76-21.163,14.108-35.978,14.108c-23.28,0-34.567-18.341-34.567-43.737v-211.634h69.134v-46.56h-69.134
		v-93.118h-52.908v93.118h-56.436v46.56h56.436v222.921C2855.458,1655.719,2880.854,1684.643,2930.941,1684.643L2930.941,1684.643z"
		/>
</g>
</svg>
